<svg width="140" height="23" viewBox="0 0 140 23" fill="none" xmlns="http://www.w3.org/2000/svg">
<path d="M7.34961 8.3942C7.63751 8.1955 8.01891 8.17799 8.32812 8.35123L8.6377 8.52603L17.7373 13.6295V13.2624C17.7376 12.783 18.2721 12.483 18.7002 12.7223L20.4854 13.7204C20.6842 13.8316 20.8065 14.0377 20.8066 14.2604V15.9137C20.8065 16.0762 20.7412 16.2326 20.624 16.3493L19.7881 17.1745C19.4495 17.5945 18.9437 17.7653 18.4893 17.5114L11.9805 13.8483L11.9785 20.7448C12.0042 21.0356 11.8799 21.3205 11.6445 21.5045C11.4355 21.6686 11.4356 21.6691 10.4258 22.4606C10.2585 22.611 10.0387 22.695 9.80957 22.695C9.31003 22.6947 8.90527 22.301 8.90527 21.8161L8.90625 12.1237L7.87109 11.5426L7.35449 11.8307C7.32418 11.8513 7.34616 11.8386 6.76074 12.1667C6.31954 12.4172 5.76149 12.2844 5.50684 11.8581C5.45202 11.7661 5.45202 11.7652 5.19238 11.3297L4.87988 10.8073C4.62365 10.3778 4.76104 9.83816 5.2002 9.59146C5.29806 9.5369 5.29879 9.53627 5.75 9.28482L7.11133 8.52506L7.34961 8.3942ZM10.4746 0.00161998C10.7595 0.0150732 11.0404 0.106164 11.2334 0.239901L15.3701 2.56021L15.5996 2.68619C15.6269 2.70154 17.0092 3.47699 19.8057 5.04654L20.0352 5.17447C20.2727 5.30791 20.4678 5.49813 20.6025 5.72818C20.7354 5.95574 20.8049 6.21476 20.8027 6.47232V10.9948C20.8028 11.4747 20.268 11.7748 19.8398 11.5348L18.0547 10.5329C17.8563 10.4215 17.7335 10.2162 17.7334 9.99381V7.32291L14.1445 5.30826C14.1105 5.29186 14.0411 5.25241 13.8418 5.14029L10.4014 3.20767L6.82422 5.21256C6.78963 5.23465 6.78967 5.23507 6.76758 5.24869C6.75432 5.25662 6.51648 5.39084 6.50879 5.39517L3.07031 7.32291V15.5553L6.66016 17.571C6.68582 17.5834 6.73301 17.6092 6.96973 17.7419L7.06934 17.8278L7.125 17.9001C7.27739 18.0175 7.36816 18.1969 7.36816 18.3883V20.3825C7.36816 20.8675 6.82245 21.1667 6.38672 20.9118L5.43457 20.318L5.20605 20.193C5.1894 20.1838 3.87684 19.4472 0.99707 17.8307L0.768555 17.7038C0.531015 17.5707 0.335989 17.3801 0.201172 17.1501C0.0679573 16.9219 -0.00158953 16.6627 0.000976562 16.4059L0 6.46451C1.73686e-05 6.18528 0.08144 5.91234 0.232422 5.67838C0.381998 5.44341 0.598407 5.25014 0.820312 5.14615L4.97168 2.81705L5.19922 2.68814C5.27448 2.64628 5.2751 2.64657 5.42773 2.56217L9.40234 0.333651L9.63574 0.199862C9.89151 0.0568547 10.1811 -0.011655 10.4746 0.00161998Z" fill="#101010"/>
<path fill-rule="evenodd" clip-rule="evenodd" d="M29.2157 17.026C29.1067 17.026 29.0114 16.9854 28.9295 16.9045C28.8479 16.8233 28.8068 16.7286 28.8068 16.6205V6.07496C28.8068 5.95618 28.8479 5.85875 28.9295 5.78312C29.0114 5.70726 29.1067 5.66945 29.2157 5.66945H31.5048C31.6247 5.66945 31.7227 5.70726 31.7991 5.78312C31.8753 5.85875 31.9134 5.95618 31.9134 6.07496V14.4791H36.8187C36.9384 14.4791 37.0394 14.5194 37.1209 14.6006C37.2028 14.6818 37.2437 14.7818 37.2437 14.9008V16.6205C37.2437 16.7395 37.2028 16.837 37.1209 16.9126C37.0394 16.9882 36.9384 17.026 36.8187 17.026H29.2157ZM37.9801 17.026C37.8929 17.026 37.8137 16.991 37.743 16.9205C37.672 16.8502 37.6367 16.7718 37.6367 16.6853C37.6367 16.6205 37.6423 16.5718 37.653 16.5393L41.4627 6.13991C41.5716 5.82627 41.7895 5.66945 42.1166 5.66945H44.6673C44.9942 5.66945 45.2123 5.82627 45.3212 6.13991L49.1309 16.5393C49.1419 16.5718 49.1473 16.6205 49.1473 16.6853C49.1473 16.7718 49.1117 16.8502 49.0409 16.9205C48.97 16.991 48.891 17.026 48.8038 17.026H46.6782C46.4168 17.026 46.2314 16.907 46.1224 16.669L45.5337 15.0955H41.2502L40.6615 16.669C40.5525 16.907 40.3671 17.026 40.1055 17.026H37.9801ZM41.9395 12.662H44.8497L43.3946 8.52478L41.9395 12.662ZM50.8171 17.026C50.6972 17.026 50.5964 16.9882 50.5146 16.9126C50.433 16.837 50.3921 16.7395 50.3921 16.6205V6.0912C50.3921 5.97242 50.433 5.8722 50.5146 5.79124C50.5964 5.71005 50.6972 5.66945 50.8171 5.66945H52.6648C52.9372 5.66945 53.1335 5.78846 53.2533 6.02624L56.0656 11.0232L58.8942 6.02624C59.0139 5.78846 59.2103 5.66945 59.4827 5.66945H61.3304C61.4503 5.66945 61.5511 5.71005 61.6329 5.79124C61.7145 5.8722 61.7554 5.97242 61.7554 6.0912V16.6205C61.7554 16.7395 61.7145 16.837 61.6329 16.9126C61.5511 16.9882 61.4503 17.026 61.3304 17.026H59.2538C59.1448 17.026 59.0495 16.9854 58.9676 16.9045C58.886 16.8233 58.8451 16.7286 58.8451 16.6205V10.7149L57.0793 13.9274C56.9376 14.1761 56.7468 14.3004 56.507 14.3004H55.6242C55.406 14.3004 55.2152 14.1761 55.0518 13.9274L53.3023 10.7149V16.6205C53.3023 16.7395 53.2614 16.837 53.1798 16.9126C53.098 16.9882 52.9972 17.026 52.8773 17.026H50.8171ZM64.3821 17.026C64.2731 17.026 64.1777 16.9854 64.0961 16.9045C64.0143 16.8233 63.9734 16.7286 63.9734 16.6205V6.0912C63.9734 5.97242 64.0115 5.8722 64.0877 5.79124C64.1642 5.71005 64.2624 5.66945 64.3821 5.66945H69.4343C70.8186 5.66945 71.8487 5.95061 72.5246 6.51318C73.2003 7.07551 73.5384 7.87586 73.5384 8.91422C73.5384 9.4334 73.3992 9.8823 73.1215 10.2607C72.8435 10.6393 72.5354 10.9151 72.1975 11.0882C72.6446 11.2828 73.0205 11.6046 73.3258 12.0534C73.6309 12.5023 73.7836 13.0081 73.7836 13.5704C73.7836 14.6626 73.421 15.5119 72.6962 16.1176C71.9715 16.7231 70.9332 17.026 69.5814 17.026H64.3821ZM69.0962 10.1631C69.4995 10.1631 69.8102 10.055 70.0284 9.83853C70.2463 9.62209 70.3554 9.34116 70.3554 8.99504C70.3554 8.65958 70.2491 8.38654 70.0365 8.17566C69.824 7.96456 69.5105 7.85924 69.0962 7.85924H67.0526V10.1631H69.0962ZM69.2435 14.8357C69.6686 14.8357 69.9984 14.7139 70.2327 14.4706C70.467 14.2274 70.5843 13.9273 70.5843 13.5702C70.5843 13.2025 70.4644 12.897 70.2245 12.6534C69.9846 12.4103 69.6578 12.2885 69.2435 12.2885H67.0526V14.8357H69.2435ZM75.9448 17.026C75.8356 17.026 75.7404 16.9854 75.6586 16.9045C75.5768 16.8233 75.5359 16.7286 75.5359 16.6205V6.0912C75.5359 5.97242 75.5742 5.8722 75.6504 5.79124C75.7266 5.71005 75.8248 5.66945 75.9448 5.66945H80.2449C81.8581 5.66945 83.1115 6.0506 84.0055 6.81337C84.8991 7.57567 85.368 8.67087 85.4113 10.0985C85.4223 10.4121 85.4279 10.8286 85.4279 11.3477C85.4279 11.8669 85.4223 12.2778 85.4113 12.5807C85.3024 15.5441 83.6073 17.026 80.3265 17.026H75.9448ZM80.2401 14.5923C80.9265 14.5923 81.4333 14.4301 81.7607 14.1056C82.0875 13.7813 82.2619 13.2619 82.2836 12.548C82.3056 12.2344 82.3164 11.8289 82.3164 11.3313C82.3164 10.8337 82.3056 10.4335 82.2836 10.1308C82.2619 9.43852 82.0737 8.92746 81.7197 8.59757C81.3653 8.26769 80.8451 8.10275 80.1582 8.10275H78.6049V14.5923H80.2401ZM86.6567 17.026C86.5694 17.026 86.4904 16.991 86.4196 16.9205C86.3485 16.8502 86.3132 16.7718 86.3132 16.6853C86.3132 16.6205 86.3186 16.5718 86.3296 16.5393L90.139 6.13991C90.2482 5.82627 90.4663 5.66945 90.7932 5.66945H93.3439C93.6709 5.66945 93.8888 5.82627 93.9978 6.13991L97.8074 16.5393C97.8184 16.5718 97.8236 16.6205 97.8236 16.6853C97.8236 16.7718 97.7883 16.8502 97.7174 16.9205C97.6468 16.991 97.5678 17.026 97.4804 17.026H95.3549C95.0933 17.026 94.9079 16.907 94.799 16.669L94.2103 15.0955H89.9265L89.3378 16.669C89.2291 16.907 89.0439 17.026 88.7823 17.026H86.6567ZM90.6058 12.662H93.5161L92.0609 8.52478L90.6058 12.662ZM102.001 17.026C101.881 17.026 101.781 16.9882 101.699 16.9126C101.617 16.837 101.576 16.7395 101.576 16.6205V8.31384H98.6986C98.5787 8.31384 98.4779 8.27603 98.3961 8.2004C98.3143 8.12455 98.2733 8.02734 98.2733 7.90834V6.0912C98.2733 5.97242 98.3143 5.8722 98.3961 5.79124C98.4779 5.71005 98.5787 5.66945 98.6986 5.66945H107.577C107.696 5.66945 107.797 5.71005 107.879 5.79124C107.961 5.8722 108.002 5.97242 108.002 6.0912V7.90834C108.002 8.02734 107.961 8.12455 107.879 8.2004C107.797 8.27603 107.696 8.31384 107.577 8.31384H104.699V16.6205C104.699 16.7395 104.658 16.837 104.576 16.9126C104.495 16.9882 104.394 17.026 104.274 17.026H102.001ZM109.857 17.026C109.748 17.026 109.653 16.9854 109.571 16.9045C109.489 16.8233 109.448 16.7286 109.448 16.6205V6.0912C109.448 5.97242 109.486 5.8722 109.563 5.79124C109.639 5.71005 109.737 5.66945 109.857 5.66945H117.574C117.694 5.66945 117.795 5.71005 117.877 5.79124C117.959 5.8722 118 5.97242 118 6.0912V7.69746C118 7.81647 117.959 7.91367 117.877 7.9893C117.795 8.06516 117.694 8.10297 117.574 8.10297H112.408V10.1635H117.215C117.335 10.1635 117.435 10.2041 117.517 10.285C117.599 10.3662 117.64 10.4662 117.64 10.5852V12.0616C117.64 12.1806 117.599 12.2806 117.517 12.3618C117.435 12.4427 117.335 12.4835 117.215 12.4835H112.408V14.5925H117.705C117.825 14.5925 117.926 14.6331 118.008 14.7141C118.089 14.7953 118.13 14.8953 118.13 15.0143V16.6205C118.13 16.7395 118.089 16.837 118.008 16.9126C117.926 16.9882 117.825 17.026 117.705 17.026H109.857ZM124.274 17.188C123.217 17.188 122.318 17.0368 121.576 16.7338C120.835 16.431 120.274 16.0309 119.892 15.533C119.511 15.0359 119.309 14.4949 119.288 13.9108C119.288 13.8136 119.323 13.7324 119.394 13.6674C119.465 13.6027 119.549 13.5702 119.647 13.5702H121.822C121.952 13.5702 122.059 13.5918 122.141 13.6352C122.222 13.6783 122.312 13.7539 122.41 13.862C122.552 14.1216 122.773 14.3353 123.073 14.503C123.372 14.6707 123.773 14.7545 124.274 14.7545C124.863 14.7545 125.315 14.6652 125.631 14.487C125.947 14.3084 126.106 14.0625 126.106 13.7486C126.106 13.5217 126.024 13.335 125.86 13.1891C125.697 13.0429 125.435 12.913 125.076 12.7996C124.716 12.6861 124.198 12.559 123.522 12.4184C122.204 12.1588 121.217 11.764 120.563 11.2339C119.909 10.704 119.582 9.94683 119.582 8.96275C119.582 8.29209 119.77 7.69449 120.146 7.16997C120.522 6.64522 121.056 6.23716 121.748 5.94509C122.44 5.65303 123.244 5.50711 124.16 5.50711C125.119 5.50711 125.95 5.67205 126.653 6.0017C127.356 6.33181 127.896 6.74266 128.272 7.2347C128.648 7.72697 128.847 8.21089 128.869 8.68692C128.869 8.78413 128.836 8.8681 128.771 8.9384C128.705 9.00869 128.624 9.04372 128.526 9.04372H126.236C125.997 9.04372 125.811 8.94651 125.681 8.75165C125.615 8.52453 125.446 8.33268 125.174 8.17586C124.901 8.01904 124.563 7.94063 124.16 7.94063C123.702 7.94063 123.348 8.02182 123.097 8.18398C122.846 8.34614 122.721 8.58415 122.721 8.8978C122.721 9.21144 122.885 9.45758 123.212 9.63597C123.539 9.8146 124.149 9.99555 125.043 10.1795C126.067 10.3632 126.882 10.5931 127.487 10.869C128.092 11.1446 128.539 11.5018 128.828 11.9396C129.117 12.3778 129.261 12.9322 129.261 13.6027C129.261 14.3381 129.049 14.9763 128.623 15.517C128.198 16.0578 127.61 16.4714 126.858 16.7581C126.106 17.0449 125.244 17.188 124.274 17.188ZM133.772 17.026C133.652 17.026 133.551 16.9882 133.47 16.9126C133.388 16.837 133.347 16.7395 133.347 16.6205V8.31384H130.47C130.349 8.31384 130.249 8.27603 130.167 8.2004C130.085 8.12455 130.045 8.02734 130.045 7.90834V6.0912C130.045 5.97242 130.085 5.8722 130.167 5.79124C130.249 5.71005 130.349 5.66945 130.47 5.66945H139.348C139.467 5.66945 139.568 5.71005 139.65 5.79124C139.732 5.8722 139.773 5.97242 139.773 6.0912V7.90834C139.773 8.02734 139.732 8.12455 139.65 8.2004C139.568 8.27603 139.467 8.31384 139.348 8.31384H136.47V16.6205C136.47 16.7395 136.429 16.837 136.347 16.9126C136.266 16.9882 136.165 17.026 136.045 17.026H133.772Z" fill="#101010"/>
</svg>
